<svg width="24" height="24" viewBox="0 0 24 24" fill="none" xmlns="http://www.w3.org/2000/svg">
<path d="M8.67638 5.3883C8.74224 5.74005 9.09118 6.01745 9.50279 5.94048C9.90244 5.85705 10.1297 5.47384 10.055 5.11361C9.96718 4.69473 9.55346 4.46139 9.16149 4.5783C8.81138 4.68278 8.60429 5.04433 8.67638 5.3883Z" fill="#40AEBF"/>
<path d="M23.8237 15.2091C19.9977 4.07198 20.2609 4.83503 20.2446 4.79711C19.8463 3.87538 19.0732 3.15883 18.1234 2.83112C17.9875 2.7842 10.2863 0.98274 10.0638 0.905676C9.38121 0.669279 8.4329 0.801798 7.76717 1.4141L1.1675 7.48687C0.425543 8.1693 0 9.14076 0 10.1523V20.9061C0 22.1734 1.02551 23.2045 2.28606 23.2045H16.4054C17.666 23.2045 18.6915 22.1734 18.6915 20.9061V19.8667L22.627 18.1824C23.7712 17.6873 24.3035 16.3584 23.8237 15.2091ZM16.4054 21.7982H2.28606C1.80094 21.7982 1.40629 21.398 1.40629 20.9061V10.1523C1.40629 9.53307 1.66626 8.93877 2.1196 8.52181C7.77382 3.3191 4.27891 6.56425 8.74177 2.44856C8.97451 2.23406 9.29585 2.1479 9.61456 2.24399C9.89943 2.32907 9.39677 1.91966 16.572 8.5219C17.0252 8.93882 17.2852 9.53307 17.2852 10.1523V20.9061C17.2852 21.398 16.8905 21.7982 16.4054 21.7982ZM22.0711 16.8907L18.6914 18.337V10.1523C18.6914 9.14076 18.2659 8.1693 17.524 7.48696L12.6092 2.96448L17.6954 4.17136C18.2506 4.37232 18.7031 4.79299 18.9435 5.33187C22.7622 16.4478 22.5046 15.7017 22.5214 15.7402C22.7134 16.184 22.5102 16.7006 22.0711 16.8907Z" fill="#40AEBF"/>
<path d="M11.3424 9.48293C10.9844 9.33265 10.5722 9.50121 10.4219 9.85925L6.99884 18.0176C6.80356 18.483 7.14852 18.993 7.64691 18.993C7.92165 18.993 8.18266 18.831 8.29563 18.5617L11.7187 10.4034C11.8689 10.0453 11.7004 9.63317 11.3424 9.48293Z" fill="#40AEBF"/>
<path d="M8.0465 11.5091C8.0465 10.152 7.05258 9.04791 5.83084 9.04791C4.60911 9.04791 3.61523 10.152 3.61523 11.5091C3.61523 12.8661 4.60915 13.9702 5.83089 13.9702C7.05263 13.9702 8.0465 12.8661 8.0465 11.5091ZM5.83089 12.5639C5.39218 12.5639 5.02152 12.0809 5.02152 11.5091C5.02152 10.9373 5.39213 10.4542 5.83089 10.4542C6.26965 10.4542 6.64026 10.9373 6.64026 11.5091C6.64021 12.0809 6.26961 12.5639 5.83089 12.5639Z" fill="#40AEBF"/>
<path d="M12.9266 14.6259C11.7049 14.6259 10.7109 15.73 10.7109 17.0871C10.7109 18.4441 11.7049 19.5482 12.9266 19.5482C14.1483 19.5482 15.1422 18.4441 15.1422 17.0871C15.1422 15.73 14.1483 14.6259 12.9266 14.6259ZM12.9266 18.1419C12.4879 18.1419 12.1172 17.6589 12.1172 17.0871C12.1172 16.5153 12.4878 16.0322 12.9266 16.0322C13.3654 16.0322 13.736 16.5153 13.736 17.0871C13.736 17.6589 13.3653 18.1419 12.9266 18.1419Z" fill="#40AEBF"/>
</svg>
