<svg width="18" height="22" viewBox="0 0 18 22" fill="none" xmlns="http://www.w3.org/2000/svg">
<path d="M15.3 7.20001V6.30002C15.3 2.8269 12.474 0 8.99998 0C5.52597 0 2.7 2.8269 2.7 6.29998V7.19997C1.21141 7.19997 0 8.41138 0 9.89996V18.9C0 20.3886 1.21141 21.6 2.7 21.6H15.3C16.7886 21.6 18 20.3886 18 18.9V9.9C18 8.41138 16.7886 7.20001 15.3 7.20001ZM4.49997 6.29998C4.49997 3.81868 6.51868 1.79997 8.99998 1.79997C11.4813 1.79997 13.5 3.81868 13.5 6.29998V7.19997H4.49997V6.29998ZM16.2 18.9C16.2 19.3968 15.7959 19.8 15.3 19.8H2.7C2.20408 19.8 1.80001 19.3968 1.80001 18.9V9.9C1.80001 9.40321 2.20413 9.00002 2.7 9.00002H15.3C15.7959 9.00002 16.2 9.40321 16.2 9.9V18.9V18.9Z" fill="#40AEBF"/>
</svg>
