<svg width="16" height="16" viewBox="0 0 16 16" fill="none" xmlns="http://www.w3.org/2000/svg">
<path d="M14.25 2.4854H1.75C0.785062 2.4854 0 3.26587 0 4.22518V11.6814C0 12.6407 0.785062 13.4211 1.75 13.4211H14.25C15.2149 13.4211 16 12.6407 16 11.6814V4.22518C16 3.26587 15.2149 2.4854 14.25 2.4854ZM1.75 3.47956H14.25C14.6635 3.47956 15 3.81406 15 4.22518V5.21933H1V4.22518C1 3.81406 1.33647 3.47956 1.75 3.47956ZM14.25 12.427H1.75C1.33647 12.427 1 12.0925 1 11.6814V6.21349H15V11.6814C15 12.0925 14.6635 12.427 14.25 12.427Z" fill="#40AEBF"/>
<path d="M3.5 10.9358H3C2.72387 10.9358 2.5 10.7132 2.5 10.4387V9.94159C2.5 9.66708 2.72387 9.44451 3 9.44451H3.5C3.77612 9.44451 4 9.66708 4 9.94159V10.4387C4 10.7132 3.77612 10.9358 3.5 10.9358Z" fill="#40AEBF"/>
</svg>
