<svg width="18" height="18" viewBox="0 0 18 18" fill="none" xmlns="http://www.w3.org/2000/svg">
<path d="M16.0312 2.79608H1.96875C0.883195 2.79608 0 3.67412 0 4.75333V13.1415C0 14.2208 0.883195 15.0988 1.96875 15.0988H16.0312C17.1168 15.0988 18 14.2208 18 13.1415V4.75333C18 3.67412 17.1168 2.79608 16.0312 2.79608ZM1.96875 3.91451H16.0312C16.4965 3.91451 16.875 4.29083 16.875 4.75333V5.87176H1.125V4.75333C1.125 4.29083 1.50353 3.91451 1.96875 3.91451ZM16.0312 13.9804H1.96875C1.50353 13.9804 1.125 13.6041 1.125 13.1415V6.99019H16.875V13.1415C16.875 13.6041 16.4965 13.9804 16.0312 13.9804Z" fill="#40AEBF"/>
<path d="M3.9375 12.3027H3.375C3.06436 12.3027 2.8125 12.0523 2.8125 11.7435V11.1843C2.8125 10.8755 3.06436 10.6251 3.375 10.6251H3.9375C4.24814 10.6251 4.5 10.8755 4.5 11.1843V11.7435C4.5 12.0523 4.24814 12.3027 3.9375 12.3027Z" fill="#40AEBF"/>
</svg>
