<svg width="18" height="25" viewBox="0 0 18 25" fill="none" xmlns="http://www.w3.org/2000/svg">
<path d="M9.00013 12.7589C10.5118 12.7589 11.737 11.5333 11.737 10.0218C11.737 8.51015 10.5118 7.28473 9.00013 7.28473C7.48832 7.28473 6.26306 8.51015 6.26306 10.0218C6.26488 11.5326 7.48915 12.7569 9.00013 12.7589ZM9.00013 8.34885C9.92693 8.34885 10.6782 9.10012 10.6782 10.0271C10.6782 10.9539 9.92693 11.7053 9.00013 11.7053C8.07316 11.7053 7.32189 10.9539 7.32189 10.0271C7.32205 9.10029 8.07332 8.34918 9.00013 8.34885Z" fill="#40AEBF"/>
<path d="M9.00004 13.7701C7.88017 13.7618 6.80546 14.2113 6.02474 15.0142C5.23063 15.8242 4.79651 16.9254 4.79651 18.1219C4.79734 18.4139 5.03375 18.6504 5.32592 18.6513H12.674C12.9662 18.6504 13.2026 18.4139 13.2034 18.1219C13.2034 16.9254 12.7693 15.8242 11.9752 15.0142C11.1946 14.2113 10.1197 13.7618 9.00004 13.7701ZM5.89239 17.5924C5.98289 16.9002 6.29507 16.256 6.7818 15.7554C7.36763 15.1626 8.16654 14.8289 9.00004 14.8289C9.83336 14.8289 10.6323 15.1626 11.2181 15.7554C11.7038 16.2565 12.0157 16.9006 12.1075 17.5924H5.89239Z" fill="#40AEBF"/>
<path d="M15.3529 0H2.64706C1.18539 0.000661765 0.000496334 1.18539 0 2.64706V21.3882C0.000496334 22.8499 1.18539 24.0346 2.64706 24.0353H15.3529C16.8146 24.0346 17.9993 22.8499 18 21.3882V2.64706C17.9993 1.18539 16.8146 0.000661765 15.3529 0ZM16.9412 21.3882C16.9387 22.2643 16.229 22.974 15.3529 22.9765H2.64706C1.77105 22.974 1.06131 22.2643 1.05882 21.3882V2.64706C1.06131 1.77105 1.77105 1.06131 2.64706 1.05882H15.3529C16.229 1.06131 16.9387 1.77105 16.9412 2.64706V21.3882Z" fill="#40AEBF"/>
<path d="M6.79247 3.55235H11.0278C11.3201 3.55235 11.5572 3.31528 11.5572 3.02294C11.5572 2.73061 11.3201 2.49353 11.0278 2.49353H6.79247C6.49997 2.49353 6.26306 2.73061 6.26306 3.02294C6.26306 3.31528 6.49997 3.55235 6.79247 3.55235V3.55235Z" fill="#40AEBF"/>
</svg>
